<svg version="1.1" viewBox="0.0 0.0 827.50656167979 370.501312335958" fill="none" stroke="none" stroke-linecap="square" stroke-miterlimit="10" xmlns:xlink="http://www.w3.org/1999/xlink" xmlns="http://www.w3.org/2000/svg"><clipPath id="p.0"><path d="m0 0l827.5066 0l0 370.5013l-827.5066 0l0 -370.5013z" clip-rule="nonzero"/></clipPath><g clip-path="url(#p.0)"><path fill="#000000" fill-opacity="0.0" d="m0 0l827.5066 0l0 370.5013l-827.5066 0z" fill-rule="evenodd"/><path fill="#000085" d="m205.9941 92.83202l0 0c0 -50.897175 41.260315 -92.157486 92.157486 -92.157486l0 0c24.44168 0 47.882294 9.709421 65.16516 26.9923c17.282898 17.28288 26.99231 40.723495 26.99231 65.165184l0 0c0 50.897163 -41.260315 92.15748 -92.15747 92.15748l0 0c-50.89717 0 -92.157486 -41.260315 -92.157486 -92.15748zm40.00557 0l0 0c0 28.802704 23.349213 52.15191 52.151917 52.15191c28.802704 0 52.151917 -23.349205 52.151917 -52.15191c0 -28.802711 -23.349213 -52.15192 -52.151917 -52.15192l0 0c-28.802704 0 -52.151917 23.349209 -52.151917 52.15192z" fill-rule="evenodd"/><path fill="#000085" d="m562.37213 142.0713l0 0c-21.86737 34.595963 -63.931396 50.62526 -103.27673 39.35559c-39.345367 -11.269669 -66.54437 -47.137924 -66.779785 -88.06477c-0.2354126 -40.926846 26.549164 -77.10562 65.76227 -88.82718c39.213104 -11.721554 81.45868 3.822772 103.722595 38.16487l-33.952026 22.011044l0 0c-12.4887085 -19.263855 -36.185974 -27.983292 -58.18216 -21.408203c-21.996185 6.5750885 -37.02072 26.869217 -36.88867 49.82672c0.13204956 22.957504 15.389069 43.07744 37.459442 49.399048c22.070374 6.3216095 45.66577 -2.6698608 57.932068 -22.076118z" fill-rule="evenodd"/><path fill="#000000" d="m205.9941 277.152l0 0c0 -50.897156 41.260315 -92.15747 92.157486 -92.15747l0 0c24.44168 0 47.882294 9.709427 65.16516 26.99231c17.282898 17.282867 26.99231 40.723495 26.99231 65.16516l0 0c0 50.897186 -41.260315 92.1575 -92.15747 92.1575l0 0c-50.89717 0 -92.157486 -41.260315 -92.157486 -92.1575zm40.00557 0l0 0c0 28.802734 23.349213 52.151917 52.151917 52.151917c28.802704 0 52.151917 -23.349182 52.151917 -52.151917c0 -28.802689 -23.349213 -52.1519 -52.151917 -52.1519l0 0c-28.802704 0 -52.151917 23.349213 -52.151917 52.1519z" fill-rule="evenodd"/><path fill="#000000" d="m392.3141 277.152l0 0c0 -50.897156 41.260315 -92.15747 92.1575 -92.15747l0 0c24.44168 0 47.882294 9.709427 65.16519 26.99231c17.282837 17.282867 26.992249 40.723495 26.992249 65.16516l0 0c0 50.897186 -41.260254 92.1575 -92.15744 92.1575l0 0c-50.897186 0 -92.1575 -41.260315 -92.1575 -92.1575zm40.005585 0l0 0c0 28.802734 23.349182 52.151917 52.151917 52.151917c28.802704 0 52.151886 -23.349182 52.151886 -52.151917c0 -28.802689 -23.349182 -52.1519 -52.151886 -52.1519l0 0c-28.802734 0 -52.151917 23.349213 -52.151917 52.1519z" fill-rule="evenodd"/><path fill="#000000" d="m0.25047454 159.06358l44.261055 0l0 210.22966l-44.261055 0z" fill-rule="evenodd"/><path fill="#000000" d="m115.132385 159.85059c53.75322 6.790985 93.055756 55.39119 89.675156 110.88931c-3.3805847 55.498108 -48.274628 98.69168 -102.433075 98.55319l0.110076904 -45.377777l0 0c30.126205 0.08026123 55.10994 -24.422699 57.028976 -55.93152c1.9190216 -31.508804 -19.889389 -59.141876 -49.780853 -63.076447z" fill-rule="evenodd"/><path fill="#000000" d="m103.323494 324.00134l0 45.30069l-82.50401 0l0 -45.30069z" fill-rule="evenodd"/><path fill="#000085" d="m102.7729 3.6750188l0 0c53.965775 0.07382369 98.60643 41.131676 102.028595 93.83989c3.422165 52.708206 -35.54944 98.96556 -89.071625 105.7236l-5.658348 -42.921127l0 0c30.92086 -3.780548 53.474525 -30.041885 51.529167 -60.000267c-1.945343 -29.958374 -27.720581 -53.309196 -58.889618 -53.350483z" fill-rule="evenodd"/><path fill="#000085" d="m0.25083333 3.6763477l44.261055 0l0 200.38722l-44.261055 0z" fill-rule="evenodd"/><path fill="#000085" d="m103.323494 3.6757832l0 43.38527l-91.39121 0l0 -43.38527z" fill-rule="evenodd"/><path fill="#000085" d="m115.72786 161.06168l0 42.974365l-98.21405 0l0 -42.974365z" fill-rule="evenodd"/><path fill="#000000" fill-opacity="0.0" d="m538.24475 -127.5l352.0 0l0 565.5748l-352.0 0z" fill-rule="evenodd"/><path fill="#000000" d="m577.9166 367.9l0 -362.67188l39.34375 0l0 179.84375l147.6875 -179.84375l53.4375 0l-124.9375 146.95312l130.375 215.71875l-51.953125 0l-105.875 -183.5625l-48.734375 57.890625l0 125.671875l-39.34375 0z" fill-rule="nonzero"/></g></svg>